<svg xmlns:svg="http://www.w3.org/2000/svg" xmlns="http://www.w3.org/2000/svg" width="1097.8" height="756.6" viewBox="0 0 1097.9 756.6" version="1.1"><path d="m134.4 664.2c-23.2 26.4-50.6 37.1-76.3 36.9-21.9-0.6-50.4-17.2-55.9-41.5-8.7-19.7 10.7-30.5 21-15.8 8.6 13.4 11.4 26.5 34.9 27.7 68.5-2.9 81.5-78.2 85.6-136 3.1-25.1 4.6-29.1 12.3-33.8 9.1-5.6 19.6-4.4 24.5 5.6 3.3 6.8 2.9 17.3-0.5 51.4-3.5 48.5-7.7 102.1-2.2 146.5 2.9 9.6 6.4 13.3 12 13.1 11.1-0.4 25-12.8 40.2-35.8 15.5-23.5 28.7-44.1 43.9-88.1 21.3-61.7 26.9-99.3 31.1-130.4 2.8-21.2 32.5-22.8 38.7-2 2.3 4.9 0.2 21.2 1.4 21.6 17.5-40.5 58-76.3 98.6-63.6 79.4 23.4 12.2 211.6 43.9 156.4 23.4-43.1 28.4-50 57.4-98.6 7-11.2 7-27.6 7-40.3 0-34 0.9-132.9 3.9-144.7 0.5-1.8 0.2-3-0.7-3-0.8 0-10 5.5-20.5 12.3-87.1 63.2-316.5 178.9-393.5 158.4-26.9-7-41.4-24.3-42.7-55 2.5-62.8 50-84.7 95.5-65.9 14.3 6.2 18.5 16.4 11.9 28.7-3.9 7.3-16 9.7-26.1 5.1-17.6-8-26.6-4.7-37 7.8-10.2 12.3-8.5 32.9 2.2 42.7 41.5 35.3 313-104.3 414.2-182.7 0.5-0.7 1.7-9.4 2.7-19.2 6.1-33.7 9.5-119.1 45.9-131.8 36.4-7.8 40.7 47.4 42.1 63.6 1.6 11.9-3.7 24.4 8.9 15.6 90.7-64.8 170.2-111.6 228.3-136.9 80.8-37.9 184.8-56.8 187.2 24 0 50.6-33.8 64.1-83.5 66.8-21.6 1.2-30.3-5.1-30.5-16.3 0.6-11.5 12.6-18.4 28.5-17.2 20.9 0.2 52.6-5.4 51-30.9-1-19.3-21.8-21.6-46.1-19.8-72.4 8.7-186.5 68.5-329.3 171.8-15.5 11.2-15.2 10.9-16.2 22.7-4.3 86-26.8 178.4-55.8 237.9-7.2 96.9 32.9 87.3 79.8 19.8 24.7-35.4 38-105 44-157.8 3.9-34.7 4.7-38.8 8.2-43.4 8.9-11.7 25.5-10.3 32.2 2.7 2.5 4.9 2.5 5.1 0.3 30-5 48.4-7 71-11.6 115.7-1.5 14.1-4.9 52.2 16.2 53.7 12.3 0.4 20.4-4.9 35-20.1 18.8-18.7 36.5-45 40.4-81.8 4.7-35.7 7.1-77.7 10.9-126.8 1.6-20.5 6.9-25.8 13.8-29.5 6.2-3.3 16-2.2 20.9 2.5 7.4 7.1 6.7 10.3 3.9 51.5-3.1 46-5 55.5-10.4 112.8-1.6 20.1-7.7 42.3 1.6 43.8 10.6 0.5 25-18.1 37.5-32.5 28.5-33 54.4-97 60.4-149.3 1.8-15.5 3.1-24.8 7-49.4 3.2-20.7 5.4-25.4 13.8-29.9 9.6-5.1 20.8-1.7 25.8 7.8 3.9 7.4 2.5 27.7-4.6 64.6-1.4 7.2-3.4 17.9-4.5 23.8-3.2 63-16.4 138.5 21.2 90.6 10.9-13.6 21.5-28.7 27-38.4 16.8-27 47.9-4.3 32.7 19.5-10.8 23.9-46.9 66.1-64.5 75.4-16.2 8.9-30.4 4.6-41.5-2.9-6.4-4.4-15.4-16.1-15.4-20.1 0-3.5-2.5-1.2-7 6.2-6.7 11.1-17.8 24.4-33.6 40.4-22.3 22.4-37.3 32.3-54.1 35.7-7.2 1.5-8.5 1.4-16.7-1.3-5.5-1.8-10.6-4.5-13.6-7.1l-4.7-4.3-3.2 4.9c-6.3 9.5-22.3 27.6-30.6 34.5-19.9 16.6-32.2 21.2-52.3 19.5-19.8-1.7-33.5-9.4-43-24-2.2-3.4-4.4-6.2-4.8-6.2-0.5 0-1.9 2.2-3.1 5-1.3 2.8-3.4 6-5.5 9.9-21.9 41.1-48 58.5-63 66.1-48.3 19.8-80-10.9-81.6-46-13.2 22.9-67.3 117-98.4 117-23.4-0.1-27.9-26.2-27.2-40.8-0.8-32.8 27-160-17.5-151.1-32.7 6-58.6 57.8-67.1 100-8.1 37-14.9 60.8-18.1 119.7 0 34-39.7 35.5-39.6 0.8-0.3-9.1-1.6-19.6-2.2-19.2-0.6 0.4-2.1 3-3.4 6-3.8 8.5-17.4 30.5-26.9 43.4-22.8 30.8-42.1 43.8-64.6 43.6-58.7-1.2-55.5-55.8-56.2-92.4zm472.5-403.6c0.8-6.9 0.7-7.2-1.5-6-1.3 0.7-3.9 2.6-5.7 4.2-3.3 2.8-3.4 3.3-5.3 27.2-9.6 107.9 1 72.4 12.5-25.4zm4.5-61c0.5-70.9-6.6-32.8-9 8.1l0 3.6 4.1-3.1c3.1-2.4 4.3-4.4 4.9-8.6z" fill="#e53500"/></svg>