<svg xmlns:dc="http://purl.org/dc/elements/1.1/" xmlns:rdf="http://www.w3.org/1999/02/22-rdf-syntax-ns#" xmlns:svg="http://www.w3.org/2000/svg" xmlns="http://www.w3.org/2000/svg" width="1090.8" height="757.2" viewBox="0 0 1090.8459 757.17841"><defs/><path style="fill:#e53500" d="M 173 756.2 C 126.4 742.7 130.6 696.4 129.9 664.8 107.5 692.9 87.5 699 53.6 699.9 31.7 699.3 2.8 681.2 0.1 657.8 c -1 -12.2 5.4 -13 11.8 -17.3 9.4 -5.9 8.1 29.9 41.7 31.6 68.5 -2.9 81.5 -78.2 85.6 -136 3.1 -25.1 4.6 -29.1 12.3 -33.8 9.1 -5.6 19.6 -4.4 24.5 5.6 3.3 6.8 2.9 17.3 -0.5 51.4 -3.5 48.5 -7.7 102.1 -2.2 146.5 2.9 9.6 6.4 13.3 12 13.1 11.1 -0.4 25 -12.8 40.2 -35.8 15.5 -23.5 28.7 -44.1 43.9 -88.1 21.3 -61.7 26.9 -99.3 31.1 -130.4 2.8 -21.2 32.5 -22.8 38.7 -2 2.3 4.9 0.2 21.2 1.4 21.6 17.5 -40.5 39.2 -54.3 78.4 -58.4 87.3 -3.8 24.7 209.8 56.4 154.6 31 -43.9 36 -53.4 65 -102 7 -11.2 7 -27.6 7 -40.3 0 -34 0.9 -132.9 3.9 -144.7 0.5 -1.8 0.2 -3 -0.7 -3 -0.8 0 -10 5.5 -20.5 12.3 -87.1 63.2 -324.6 176.2 -393.5 158.4 -26.9 -7 -33.3 -24.3 -37.3 -50.5 -8.4 -62.8 44.6 -89.2 90.1 -70.4 14.3 6.2 18.5 16.4 11.9 28.7 -3.9 7.3 -16 9.7 -26.1 5.1 -17.6 -8 -26.6 -4.7 -37 7.8 -10.2 12.3 -8.5 32.9 2.2 42.7 41.5 35.3 313 -104.3 414.2 -182.7 0.5 -0.7 1.7 -9.4 2.7 -19.2 6.1 -33.7 9.5 -119.1 45.9 -131.8 36.4 -7.8 40.7 47.4 42.1 63.6 0.6 8.1 0.9 15.5 0.5 16.5 -1.7 4.4 1.4 4.1 8.4 -0.9 90.7 -64.8 170.2 -111.6 228.3 -136.9 43.3 -16.8 135.4 -54.4 172.9 -17.4 25.3 27.1 16 72 -6.5 92.1 -19 18.6 -85.2 29.9 -93.6 2.6 0.1 -6.4 2.7 -10.7 9 -15 5.1 -3.5 8.8 -3.5 20.3 -0.3 20.9 4.6 47.3 -7.2 49.1 -28.2 0.7 -32.2 -20.3 -28.9 -44.6 -27.1 -72.4 8.7 -186.5 68.5 -329.3 171.8 -15.5 11.2 -15.2 10.9 -16.2 22.7 -7.1 84.8 -24.6 164.2 -48.2 219.2 -3.5 8.2 -7 16.7 -7.6 18.7 -1.5 4.8 0.7 40 3.2 52.2 20.1 46.5 56.3 -7.1 76.6 -32.4 23.9 -33.7 38 -105 44 -157.8 3.9 -34.7 4.7 -38.8 8.2 -43.4 8.9 -11.7 25.5 -10.3 32.2 2.7 2.5 4.9 2.5 5.1 0.3 30 -5 48.4 -7 71 -11.6 115.7 -1.5 14.1 -4.9 54.7 16.2 56.2 12.3 0.4 20.4 -7.4 35 -22.6 18.8 -18.7 36.5 -45 40.4 -81.8 4.7 -35.7 7.1 -77.7 10.9 -126.8 1.6 -20.5 6.9 -25.8 13.8 -29.5 6.2 -3.3 16 -2.2 20.9 2.5 7.4 7.1 6.7 10.3 3.9 51.5 -3.1 46 -5 55.5 -10.4 112.8 -1.6 20.1 -7.7 42.3 1.6 43.8 10.6 0.5 25 -18.1 37.5 -32.5 28.5 -33 54.4 -97 60.4 -149.3 1.8 -15.5 3.1 -24.8 7 -49.4 3.2 -20.7 5.4 -25.4 13.8 -29.9 9.6 -5.1 20.8 -1.7 25.8 7.8 3.9 7.4 2.5 27.7 -4.6 64.6 -1.4 7.2 -3.4 17.9 -4.5 23.8 -2.2 12 -5 78 -3.8 91.6 0.8 8.8 3.1 16.1 5.7 17.7 1.9 1.2 8 -4.7 19.3 -18.7 10.9 -13.6 21.5 -28.7 27 -38.4 16.8 -27 40.3 1.6 32.7 19.5 -10.8 23.9 -46.9 66.1 -64.5 75.4 -16.2 8.9 -30.4 4.6 -41.5 -2.9 -6.4 -4.4 -15.4 -16.1 -15.4 -20.1 0 -3.5 -2.5 -1.2 -7 6.2 -6.7 11.1 -17.8 24.4 -33.6 40.4 -22.3 22.4 -37.3 32.3 -54.1 35.7 -7.2 1.5 -8.5 1.4 -16.7 -1.3 -5.5 -1.8 -10.6 -4.5 -13.6 -7.1 l -4.7 -4.3 -3.2 4.9 c -6.3 9.5 -22.3 27.6 -30.6 34.5 -19.9 16.6 -32.2 21.2 -52.3 19.5 -19.8 -1.7 -33.5 -9.4 -43 -24 -2.2 -3.4 -4.4 -6.2 -4.8 -6.2 -0.5 0 -1.9 2.2 -3.1 5 -1.3 2.8 -3.4 6 -5.5 9.9 -21.9 41.1 -48 58.5 -63 66.1 -36.2 19.5 -75.1 -8.8 -78.4 -37.7 -0.7 -9.4 -3.2 -8.3 -3.2 -8.3 -2.2 1 -2.3 1.8 -6 7.3 -19.7 36.4 -70.4 113.5 -97.5 112.2 -23.4 -0.1 -24.5 -28.7 -23.8 -43.3 -0.8 -32.8 22.2 -149.4 -22.3 -140.5 -32.7 6 -58.1 58.9 -64.8 89.4 -8.1 37 -10.7 60.8 -13.9 119.7 -3.2 20.6 -7.7 26.7 -24.1 26.9 -10.9 -0 -15 -7.5 -15.5 -26.1 -0.3 -9.1 -1.6 -19.6 -2.2 -19.2 -0.6 0.4 -2.1 3 -3.4 6 -3.8 8.5 -17.4 30.5 -26.9 43.4 -22.8 30.8 -42.1 43.8 -64.6 43.6 -5.2 -0.1 -11 -1 -13.1 -1 z M 602.4 261.2 c 0.8 -6.9 0.7 -7.2 -1.5 -6 -1.3 0.7 -3.9 2.6 -5.7 4.2 -3.3 2.8 -3.4 3.3 -5.3 27.2 -9.6 107.9 1 72.4 12.5 -25.4 z m 4.5 -61 c 0.5 -70.9 -6.6 -32.8 -9 8.1 l -0 3.6 4.1 -3.1 c 3.1 -2.4 4.3 -4.4 4.9 -8.6 z" /></svg>
